<?xml version="1.0" standalone="no"?>
<!DOCTYPE svg PUBLIC "-//W3C//DTD SVG 20010904//EN"
 "http://www.w3.org/TR/2001/REC-SVG-20010904/DTD/svg10.dtd">
<svg version="1.0" xmlns="http://www.w3.org/2000/svg"
 width="227.000000pt" height="85.000000pt" viewBox="0 0 227.000000 85.000000"
 preserveAspectRatio="xMidYMid meet">

<g transform="translate(0.000000,85.000000) scale(0.100000,-0.100000)"
fill="#db0c14" stroke="none">
<path d="M100 439 l0 -311 31 6 c17 3 38 6 45 6 11 0 14 42 16 213 l3 212 55
-203 55 -203 45 7 c25 4 48 8 52 11 5 2 8 132 8 289 l0 284 -45 0 -45 0 -2
-162 -3 -163 -45 163 -44 162 -63 0 -63 0 0 -311z"/>
<path d="M470 464 l0 -286 28 5 c16 3 75 9 130 13 l102 7 0 45 0 45 -80 -6
-80 -6 0 78 0 78 38 7 c20 3 49 6 65 6 25 0 27 3 27 40 l0 40 -65 0 -65 0 0
70 0 70 80 0 80 0 0 40 0 40 -130 0 -130 0 0 -286z"/>
<path d="M760 710 l0 -40 50 0 50 0 0 -231 0 -230 48 3 47 3 3 227 2 227 48 3
c47 3 47 3 50 41 l3 37 -150 0 -151 0 0 -40z"/>
<path d="M1090 485 l0 -265 50 0 50 0 0 115 0 115 60 0 60 0 0 40 0 40 -60 0
-60 0 0 70 0 69 78 3 77 3 3 38 3 37 -130 0 -131 0 0 -265z"/>
<path d="M1390 480 l0 -270 43 0 c23 0 79 -3 125 -7 l82 -6 0 47 0 46 -75 0
-75 0 0 230 0 230 -50 0 -50 0 0 -270z"/>
<path d="M1680 470 l0 -280 34 0 c19 0 41 -3 50 -6 14 -6 16 23 16 280 l0 286
-50 0 -50 0 0 -280z"/>
<path d="M1830 748 c0 -2 22 -64 49 -138 40 -110 47 -139 39 -160 -6 -14 -30
-80 -53 -146 -44 -121 -44 -122 -22 -128 66 -18 71 -14 107 99 19 58 37 105
40 105 4 0 22 -53 41 -117 l35 -118 48 -8 c27 -4 50 -6 52 -4 2 2 -19 74 -46
159 -28 86 -50 164 -50 175 0 10 20 76 45 146 25 71 45 130 45 132 0 3 -20 5
-44 5 -45 0 -45 0 -64 -52 -11 -29 -25 -72 -32 -95 -7 -24 -16 -43 -19 -43 -4
0 -20 42 -37 93 l-30 92 -52 3 c-29 2 -52 2 -52 0z"/>
</g>
</svg>
